<?xml version="1.0" encoding="UTF-8"?>
<svg id="Layer_1" data-name="Layer 1" xmlns="http://www.w3.org/2000/svg" viewBox="0 0 332.45 336.96">
  <defs>
    <style>
      .cls-1 {
        fill: #fff;
      }

      .cls-2 {
        fill: #231f20;
      }
    </style>
  </defs>
  <rect class="cls-2" width="336.96" height="336.96"/>
  <g>
    <path class="cls-1" d="m35.04,10.17h94.23l21.46,21.46v42.07l-8.59,8.8,15.24,15.45v39.28l-23.18,23.18H35.04V10.17Zm79.2,62.89l7.73-7.73v-23.18l-7.51-7.51h-50.87v38.42h50.65Zm5.15,62.89l9.23-9.23v-21.03l-9.23-9.23h-55.81v39.49h55.81Z"/>
    <path class="cls-1" d="m179.58,10.17h94.23l21.46,21.46v42.07l-8.59,8.8,15.24,15.45v39.28l-23.18,23.18h-99.16V10.17Zm79.2,62.89l7.73-7.73v-23.18l-7.51-7.51h-50.87v38.42h50.65Zm5.15,62.89l9.23-9.23v-21.03l-9.23-9.23h-55.81v39.49h55.81Z"/>
    <path class="cls-1" d="m124.2,336.96l-10.6-10.53h-53.87l-24.68-24.68v-100.88l24.68-24.68h72.98l24.68,24.68v100.88l-15.88,15.88,18.93,19.33h-36.23Zm-4.81-35.43l10.95-10.95v-78.56l-10.95-10.95h-46.36l-10.95,10.95v78.56l10.95,10.95h46.36Z"/>
    <path class="cls-1" d="m301.92,276.86v49.8h-29.19v-43.14l-17.17-14.38h-46.79v57.52h-29.19v-150.25h92.72l22.97,23.18v45.5l-13.09,14.81,19.75,16.96Zm-93.15-31.77h50.23l7.51-7.51v-29.19l-7.51-7.51h-50.23v44.21Z"/>
  </g>
  <path class="cls-1" d="m107.69,281.34l5.6-5.6v-48.4l-5.6-5.6h-23.18l-5.6,5.6v48.4l5.6,5.6h23.18Z"/>
</svg>