<?xml version="1.0" encoding="UTF-8"?>
<svg id="Layer_1" data-name="Layer 1" xmlns="http://www.w3.org/2000/svg" viewBox="0 0 332.45 336.96">
  <defs>
    <style>
      .cls-1 {
        fill: #fff;
      }

      .cls-2 {
        fill: #231f20;
      }
    </style>
  </defs>
  <rect class="cls-2" width="332.45" height="336.96" rx="31.78" ry="31.78"/>
  <g>
    <g>
      <path class="cls-1" d="m28.86,26.07h98.58l22.46,19.38v37.98l-8.98,7.94,15.94,13.95v35.46l-24.25,20.93H28.86V26.07Zm82.86,56.77l8.08-6.97v-20.93l-7.86-6.78h-53.22v34.68h53Zm5.39,56.77l9.66-8.33v-18.99l-9.66-8.33h-58.39v35.65h58.39Z"/>
      <path class="cls-1" d="m180.09,26.07h98.58l22.46,19.38v37.98l-8.98,7.94,15.94,13.95v35.46l-24.25,20.93h-103.75V26.07Zm82.86,56.77l8.08-6.97v-20.93l-7.86-6.78h-53.22v34.68h53Zm5.39,56.77l9.66-8.33v-18.99l-9.66-8.33h-58.39v35.65h58.39Z"/>
      <path class="cls-1" d="m122.15,321.06l-11.09-9.5h-56.37l-25.83-22.28v-91.06l25.83-22.28h76.35l25.83,22.28v91.06l-16.62,14.34,19.8,17.45h-37.91Zm-5.03-31.98l11.45-9.88v-70.91l-11.45-9.88h-48.51l-11.45,9.88v70.91l11.45,9.88h48.51Z"/>
      <path class="cls-1" d="m308.09,266.81v44.95h-30.54v-38.94l-17.97-12.98h-48.96v51.93h-30.54v-135.63h97.01l24.03,20.93v41.07l-13.7,13.37,20.66,15.31Zm-97.46-28.68h52.55l7.86-6.78v-26.35l-7.86-6.78h-52.55v39.91Z"/>
    </g>
    <path class="cls-1" d="m104.88,270.85l5.86-5.06v-43.69l-5.86-5.06h-24.25l-5.86,5.06v43.69l5.86,5.06h24.25Z"/>
  </g>
</svg>